# Blender 4.2.0
# www.blender.org
mtllib Binance_card.mtl
o Cube.001
v -0.449242 -0.258742 0.449242
v -0.408110 -0.284820 0.449242
v -0.447229 -0.266801 0.449242
v -0.441386 -0.274070 0.449242
v -0.432287 -0.279840 0.449242
v -0.420820 -0.283544 0.449242
v -0.408110 0.284820 0.449242
v -0.449242 0.258742 0.449242
v -0.420820 0.283544 0.449242
v -0.432287 0.279840 0.449242
v -0.441386 0.274070 0.449242
v -0.447229 0.266801 0.449242
v -0.408110 -0.284820 0.444726
v -0.449242 -0.258742 0.444726
v -0.420820 -0.283544 0.444726
v -0.432287 -0.279840 0.444726
v -0.441386 -0.274070 0.444726
v -0.447229 -0.266801 0.444726
v -0.449242 0.258742 0.444726
v -0.408110 0.284820 0.444726
v -0.447229 0.266801 0.444726
v -0.441386 0.274070 0.444726
v -0.432287 0.279840 0.444726
v -0.420820 0.283544 0.444726
v 0.408110 -0.284820 0.449242
v 0.449242 -0.258742 0.449242
v 0.420820 -0.283544 0.449242
v 0.432287 -0.279840 0.449242
v 0.441386 -0.274070 0.449242
v 0.447229 -0.266801 0.449242
v 0.449242 0.258742 0.449242
v 0.408110 0.284820 0.449242
v 0.447229 0.266801 0.449242
v 0.441386 0.274070 0.449242
v 0.432287 0.279840 0.449242
v 0.420820 0.283544 0.449242
v 0.449242 -0.258742 0.444726
v 0.408110 -0.284820 0.444726
v 0.447229 -0.266801 0.444726
v 0.441386 -0.274070 0.444726
v 0.432287 -0.279840 0.444726
v 0.420820 -0.283544 0.444726
v 0.408110 0.284820 0.444726
v 0.449242 0.258742 0.444726
v 0.420820 0.283544 0.444726
v 0.432287 0.279840 0.444726
v 0.441386 0.274070 0.444726
v 0.447229 0.266801 0.444726
vn -0.0000 -0.0000 1.0000
vn 1.0000 -0.0000 -0.0000
vn -0.0000 1.0000 -0.0000
vn -1.0000 -0.0000 -0.0000
vn -0.0000 -0.0000 -1.0000
vn -0.0999 -0.9950 -0.0000
vn -0.3074 -0.9516 -0.0000
vn -0.5355 -0.8446 -0.0000
vn -0.7795 -0.6264 -0.0000
vn -0.9702 -0.2424 -0.0000
vn -0.0999 0.9950 -0.0000
vn -0.3074 0.9516 -0.0000
vn -0.5355 0.8446 -0.0000
vn -0.7795 0.6264 -0.0000
vn -0.9702 0.2424 -0.0000
vn 0.0999 -0.9950 -0.0000
vn 0.3074 -0.9516 -0.0000
vn 0.5355 -0.8446 -0.0000
vn 0.7795 -0.6264 -0.0000
vn 0.9702 -0.2424 -0.0000
vn 0.0999 0.9950 -0.0000
vn 0.3074 0.9516 -0.0000
vn 0.5355 0.8446 -0.0000
vn 0.7795 0.6264 -0.0000
vn 0.9702 0.2424 -0.0000
vn -0.0000 -1.0000 -0.0000
vt 0.999715 0.046698
vt 0.997477 0.032588
vt 0.990984 0.019860
vt 0.980870 0.009759
vt 0.968125 0.003273
vt 0.953998 0.001038
vt 0.046792 0.001038
vt 0.032665 0.003273
vt 0.019921 0.009759
vt 0.009807 0.019860
vt 0.003313 0.032588
vt 0.001075 0.046698
vt 0.001075 0.952760
vt 0.003313 0.966869
vt 0.009807 0.979597
vt 0.019921 0.989699
vt 0.032665 0.996184
vt 0.046792 0.998419
vt 0.953998 0.998419
vt 0.968125 0.996184
vt 0.980870 0.989699
vt 0.990984 0.979597
vt 0.997477 0.966869
vt 0.999715 0.952760
vt 0.614346 0.498419
vt 0.387235 0.498419
vt 0.046792 0.001038
vt 0.364346 0.498419
vt 0.137235 0.498419
vt 0.120081 0.714204
vt 0.006785 0.035253
vt 0.614346 -0.001581
vt 0.387235 -0.001581
vt 0.387235 0.248419
vt 0.614346 0.248419
vt 0.375790 0.259864
vt 0.376351 0.256327
vt 0.377976 0.253137
vt 0.380508 0.250605
vt 0.383699 0.248979
vt 0.617882 0.248979
vt 0.621073 0.250605
vt 0.623605 0.253137
vt 0.625230 0.256327
vt 0.625790 0.259864
vt 0.625790 0.486974
vt 0.625230 0.490511
vt 0.623605 0.493701
vt 0.621073 0.496233
vt 0.617882 0.497859
vt 0.383699 0.497859
vt 0.380508 0.496233
vt 0.377976 0.493701
vt 0.376351 0.490511
vt 0.375790 0.486974
vt 0.864345 0.498419
vt 0.881463 0.714204
vt 0.879710 0.724777
vt 0.867882 0.498419
vt 0.878129 0.734315
vt 0.871073 0.498419
vt 0.875790 0.748419
vt 0.875790 0.498419
vt 0.625790 0.248419
vt 0.625790 -0.001581
vt 0.617882 -0.001581
vt 0.617882 0.248419
vt 0.133699 0.498419
vt 0.121845 0.724777
vt 0.130508 0.498419
vt 0.123437 0.734315
vt 0.125790 0.498419
vt 0.125790 0.748419
vt 0.375790 -0.001581
vt 0.375790 0.248419
vt 0.383699 0.248419
vt 0.383699 -0.001581
vt 0.994042 0.035253
vt 0.637235 0.498419
vt 0.633699 0.498419
vt 0.995795 0.024680
vt 0.630508 0.498419
vt 0.997376 0.015142
vt 0.621073 0.498419
vt 0.980870 0.001038
vt 0.617882 0.498419
vt 0.968125 0.001038
vt 0.005020 0.024680
vt 0.367882 0.498419
vt 0.003429 0.015142
vt 0.371073 0.498419
vt 0.019921 0.001038
vt 0.380508 0.498419
vt 0.032665 0.001038
vt 0.383699 0.498419
s 0
usemtl Material.002
f 25/1/1 27/2/1 28/3/1 29/4/1 30/5/1 26/6/1 31/7/1 33/8/1 34/9/1 35/10/1 36/11/1 32/12/1 7/13/1 9/14/1 10/15/1 11/16/1 12/17/1 8/18/1 1/19/1 3/20/1 4/21/1 5/22/1 6/23/1 2/24/1
f 37/25/2 44/26/2 31/27/2 26/6/2
f 43/28/3 20/29/3 7/30/3 32/31/3
f 1/32/4 8/33/4 19/34/4 14/35/4
f 13/36/5 15/37/5 16/38/5 17/39/5 18/40/5 14/34/5 19/35/5 21/41/5 22/42/5 23/43/5 24/44/5 20/45/5 43/46/5 45/47/5 46/48/5 47/49/5 48/50/5 44/25/5 37/26/5 39/51/5 40/52/5 41/53/5 42/54/5 38/55/5
f 13/56/6 2/57/6 6/58/6 15/59/6
f 15/59/7 6/58/7 5/60/7 16/61/7
f 16/61/8 5/60/8 4/62/8 17/63/8
f 17/64/9 4/65/9 3/66/9 18/67/9
f 18/67/10 3/66/10 1/32/10 14/35/10
f 7/30/11 20/29/11 24/68/11 9/69/11
f 9/69/12 24/68/12 23/70/12 10/71/12
f 10/71/13 23/70/13 22/72/13 11/73/13
f 11/74/14 22/75/14 21/76/14 12/77/14
f 12/77/15 21/76/15 19/34/15 8/33/15
f 25/78/16 38/79/16 42/80/16 27/81/16
f 27/81/17 42/80/17 41/82/17 28/83/17
f 28/83/18 41/82/18 40/84/18 29/85/18
f 29/85/19 40/84/19 39/86/19 30/87/19
f 30/87/20 39/86/20 37/25/20 26/6/20
f 43/28/21 32/31/21 36/88/21 45/89/21
f 45/89/22 36/88/22 35/90/22 46/91/22
f 46/91/23 35/90/23 34/92/23 47/93/23
f 47/93/24 34/92/24 33/94/24 48/95/24
f 48/95/25 33/94/25 31/27/25 44/26/25
f 13/56/26 38/79/26 25/78/26 2/57/26
